<svg width="24" height="24" viewBox="0 0 24 24" fill="none" xmlns="http://www.w3.org/2000/svg">
<g clip-path="url(#clip0_584_152)">
<path d="M14.8733 15.7488C14.5673 16.1442 14.3258 16.5921 14.1643 17.0765L11.6871 16.0068C11.3076 15.8429 10.8773 15.8429 10.4978 16.0068L3.10144 19.2007C1.77445 19.7737 0.48443 18.3229 1.20864 17.072L9.7943 2.24225C10.372 1.24432 11.8128 1.24432 12.3906 2.24225L19.2392 14.0718C18.9781 14.0246 18.7092 14 18.4345 14C18.1206 14 17.8142 14.0322 17.5185 14.0933L11.0924 2.99381L2.50678 17.8236L9.90313 14.6297C10.6621 14.3019 11.5227 14.3019 12.2817 14.6297L14.8733 15.7488Z" fill="#434343"/>
<path fill-rule="evenodd" clip-rule="evenodd" d="M18.5 21.7C20.2673 21.7 21.7 20.2673 21.7 18.5C21.7 16.7327 20.2673 15.3 18.5 15.3C16.7327 15.3 15.3 16.7327 15.3 18.5C15.3 20.2673 16.7327 21.7 18.5 21.7ZM23 18.5C23 20.9853 20.9853 23 18.5 23C16.0147 23 14 20.9853 14 18.5C14 16.0147 16.0147 14 18.5 14C20.9853 14 23 16.0147 23 18.5Z" fill="#B4B4B4"/>
<rect x="18.1069" y="16.7" width="0.820703" height="3.63454" rx="0.410351" fill="#434343"/>
<rect x="16.7" y="18.1069" width="3.63454" height="0.820703" rx="0.410351" fill="#434343"/>
</g>
<defs>
<clipPath id="clip0_584_152">
<rect width="24" height="24" fill="white"/>
</clipPath>
</defs>
</svg>
