<svg width="24" height="24" viewBox="0 0 24 24" fill="none" xmlns="http://www.w3.org/2000/svg">
<path d="M15.8899 15.0114C15.4502 15.325 15.0692 15.7158 14.7669 16.164L13.8063 15.7557C13.392 15.5796 12.9238 15.5796 12.5094 15.7557L6.73119 18.2115C5.26 18.8367 3.84323 17.2229 4.65372 15.8451L11.7289 3.81731C12.3699 2.72756 13.9458 2.72756 14.5869 3.81731L21.2185 15.0912C20.5766 14.6038 19.7999 14.2849 18.9541 14.2001L13.294 4.57784C13.273 4.54223 13.2533 4.52751 13.2377 4.51894C13.2182 4.50825 13.1907 4.5 13.1579 4.5C13.1251 4.5 13.0975 4.50825 13.0781 4.51894C13.0625 4.52751 13.0427 4.54223 13.0218 4.57784L5.94663 16.6056C5.92706 16.6388 5.92122 16.6603 5.91918 16.6702C5.91704 16.6807 5.91685 16.6893 5.91797 16.6983C5.92048 16.7184 5.93218 16.7535 5.96406 16.7898C5.99595 16.8261 6.02924 16.8423 6.04884 16.8474C6.05758 16.8496 6.06622 16.8506 6.07683 16.8498C6.08693 16.8491 6.10898 16.8461 6.14448 16.831L11.9227 14.3752C12.712 14.0398 13.6038 14.0398 14.393 14.3752L15.8899 15.0114Z" fill="#434343"/>
<path d="M7.76606 2.57514L10.3145 6.71638L11.1753 5.25307L9.04354 1.789C8.39616 0.737002 6.86701 0.737001 6.21963 1.789L1.44137 9.55367C0.601829 10.9179 1.99324 12.5615 3.47732 11.9585L7.00759 10.5244C7.35836 10.3819 7.74573 10.3643 8.10553 10.4716L8.87812 9.15823L8.82014 9.13468C8.05801 8.82506 7.20515 8.82506 6.44303 9.13468L2.91275 10.5688C2.87683 10.5834 2.85468 10.5861 2.84458 10.5867C2.83398 10.5873 2.82539 10.5862 2.81672 10.5838C2.79725 10.5784 2.76416 10.5616 2.73282 10.5246C2.70147 10.4876 2.69042 10.4522 2.68829 10.4321C2.68735 10.4231 2.68769 10.4145 2.69003 10.4041C2.69226 10.3942 2.69853 10.3728 2.71885 10.3398L7.49711 2.57514C7.51786 2.54143 7.53744 2.52691 7.55341 2.51832C7.57291 2.50783 7.59986 2.5 7.63158 2.5C7.6633 2.5 7.69026 2.50783 7.70975 2.51832C7.72573 2.52691 7.74531 2.54143 7.76606 2.57514Z" fill="#434343"/>
<g clip-path="url(#clip0_584_151)">
<rect x="18.1069" y="16.7" width="0.820703" height="3.63454" rx="0.410351" fill="#434343"/>
<rect x="16.7" y="18.1069" width="3.63454" height="0.820703" rx="0.410351" fill="#434343"/>
<path fill-rule="evenodd" clip-rule="evenodd" d="M18.5 21.7C20.2673 21.7 21.7 20.2673 21.7 18.5C21.7 16.7327 20.2673 15.3 18.5 15.3C16.7327 15.3 15.3 16.7327 15.3 18.5C15.3 20.2673 16.7327 21.7 18.5 21.7ZM23 18.5C23 20.9853 20.9853 23 18.5 23C16.0147 23 14 20.9853 14 18.5C14 16.0147 16.0147 14 18.5 14C20.9853 14 23 16.0147 23 18.5Z" fill="#B4B4B4"/>
</g>
<defs>
<clipPath id="clip0_584_151">
<rect width="9" height="9" fill="white" transform="translate(14 14)"/>
</clipPath>
</defs>
</svg>
