<svg width="16" height="16" viewBox="0 0 16 16" fill="none" xmlns="http://www.w3.org/2000/svg">
<path opacity="0.4" fill-rule="evenodd" clip-rule="evenodd" d="M14.2539 6.99984C14.1759 6.51231 14.0411 6.03443 13.8512 5.57618C13.533 4.80778 13.0664 4.1096 12.4783 3.52149C11.8902 2.93339 11.1921 2.46688 10.4237 2.1486C9.9654 1.95878 9.48753 1.82391 9 1.74595L9 5.26229C9.03872 5.27643 9.07717 5.29141 9.11532 5.30721C9.46892 5.45368 9.79021 5.66836 10.0608 5.93899C10.3315 6.20963 10.5462 6.53092 10.6926 6.88452C10.7084 6.92267 10.7234 6.96112 10.7375 6.99984H14.2539ZM15.2648 6.99984C15.3103 7.3305 15.3333 7.6646 15.3333 7.99984H9.91447C9.91447 7.74843 9.86496 7.49948 9.76874 7.2672C9.67253 7.03493 9.53151 6.82388 9.35374 6.6461C9.17596 6.46832 8.96491 6.32731 8.73264 6.23109C8.50036 6.13488 8.25141 6.08536 8 6.08536V0.666504C8.33524 0.666504 8.66934 0.68949 9 0.735005C9.6192 0.820239 10.2263 0.984478 10.8063 1.22472C11.6961 1.59326 12.5045 2.13342 13.1854 2.81439C13.8664 3.49535 14.4066 4.30377 14.7751 5.19349C15.0154 5.77349 15.1796 6.38063 15.2648 6.99984Z" fill="#434343"/>
<path d="M8.00033 0.666504C3.95024 0.666504 0.666992 3.94975 0.666992 7.99984C0.666992 12.0499 3.95024 15.3332 8.00033 15.3332C12.0504 15.3332 15.3337 12.0499 15.3337 7.99984H14.3337C14.3337 11.4976 11.4981 14.3332 8.00033 14.3332C4.50252 14.3332 1.66699 11.4976 1.66699 7.99984C1.66699 4.50203 4.50252 1.6665 8.00033 1.6665V0.666504Z" fill="#434F64"/>
<path d="M8.00033 5.08536C6.39071 5.08536 5.08585 6.39022 5.08585 7.99984C5.08585 9.60946 6.39071 10.9143 8.00033 10.9143C9.60995 10.9143 10.9148 9.60946 10.9148 7.99984H9.9148C9.9148 9.05717 9.05766 9.91431 8.00033 9.91431C6.94299 9.91431 6.08585 9.05717 6.08585 7.99984C6.08585 6.9425 6.94299 6.08536 8.00033 6.08536V5.08536Z" fill="#434F64"/>
</svg>
