<svg width="12" height="12" viewBox="0 0 12 12" fill="none" xmlns="http://www.w3.org/2000/svg">
<path fill-rule="evenodd" clip-rule="evenodd" d="M4.6451 10.6435C4.47968 10.8089 4.2615 10.9111 4.02852 10.9323L0.5 11.253L0.820775 7.72452C0.841955 7.49155 0.944143 7.27337 1.10956 7.10795L7.92462 0.292893C8.31515 -0.0976316 8.94831 -0.0976306 9.33883 0.292893L11.4602 2.41421C11.8507 2.80474 11.8507 3.4379 11.4602 3.82843L4.6451 10.6435ZM7.21751 2.41422L8.63173 1L10.753 3.12132L9.33883 4.53554L7.21751 2.41422ZM6.5104 3.12133L8.63172 5.24265L3.93799 9.93638L1.60454 10.1485L1.81667 7.81506L6.5104 3.12133Z" fill="currentColor"/> 
</svg>
