<svg width="24" height="24" viewBox="0 0 24 24" fill="none" xmlns="http://www.w3.org/2000/svg">
<path opacity="0.4" fill-rule="evenodd" clip-rule="evenodd" d="M12.5158 16.5445L17.061 12.2385L12.5438 7.48344C12.2585 7.18313 11.7838 7.17096 11.4834 7.45625C11.1831 7.74154 11.171 8.21626 11.4563 8.51656L14.053 11.25H8C7.58579 11.25 7.25 11.5858 7.25 12C7.25 12.4142 7.58579 12.75 8 12.75H14.34L11.4842 15.4555C11.1835 15.7404 11.1707 16.2151 11.4555 16.5158C11.7404 16.8165 12.2151 16.8293 12.5158 16.5445Z" fill="#434343"/>
<path fill-rule="evenodd" clip-rule="evenodd" d="M1.67278 4.09261L7.42432 2.10094C7.61422 2.03518 7.81953 2.02816 8.01347 2.0808L15.9865 4.24479C16.1805 4.29743 16.3858 4.29041 16.5757 4.22465L21.6728 2.4596C22.3224 2.23465 23 2.7171 23 3.40455V18.9624C23 19.3886 22.7299 19.7679 22.3272 19.9074L16.5757 21.8991C16.3858 21.9648 16.1805 21.9718 15.9865 21.9192L8.01347 19.7552C7.81953 19.7026 7.61422 19.7096 7.42432 19.7754L6.93349 18.3579C7.40824 18.1935 7.92151 18.176 8.40638 18.3076L16.2306 20.4312L21.5 18.6065V4.10682L17.0665 5.64207C16.5918 5.80647 16.0785 5.82402 15.5936 5.69242L7.76941 3.56882L2.5 5.39355V19.8932L6.93348 18.3579L7.42432 19.7754L2.32722 21.5404C1.67762 21.7654 1 21.2829 1 20.5955V5.03756C1 4.6114 1.27008 4.23206 1.67278 4.09261ZM21.8357 18.4902L21.8364 18.49L22 18.9624L21.8364 18.49C21.8362 18.4901 21.8359 18.4901 21.8357 18.4902Z" fill="#434343"/>
</svg>
