<svg width="24" height="24" viewBox="0 0 24 24" fill="none" xmlns="http://www.w3.org/2000/svg">
<path opacity="0.4" fill-rule="evenodd" clip-rule="evenodd" d="M20.3068 19.211C20.026 19.5344 19.5327 19.5327 19.2299 19.2299C18.9271 18.927 18.9299 18.4379 19.2069 18.1113C20.581 16.491 21.3741 14.4476 21.4441 12.3092C21.5226 9.91138 20.6861 7.5735 19.1043 5.76977C17.5224 3.96605 15.3138 2.83155 12.9262 2.5964C10.5387 2.36125 8.15112 3.04306 6.2478 4.50352C4.34448 5.96399 3.06795 8.09375 2.67715 10.4608C2.28635 12.8278 2.81055 15.2549 4.14341 17.2496C5.47626 19.2444 7.51798 20.6575 9.85438 21.2023C11.9381 21.6881 14.1171 21.4509 16.0379 20.543C16.425 20.3599 16.8982 20.4838 17.1123 20.8547C17.3265 21.2256 17.2004 21.7026 16.8154 21.8901C14.5516 22.9923 11.9695 23.288 9.50221 22.7127C6.78233 22.0785 4.40551 20.4334 2.85389 18.1113C1.30227 15.7891 0.692033 12.9637 1.14697 10.2082C1.60192 7.45262 3.08797 4.97329 5.30368 3.27312C7.51939 1.57294 10.2988 0.779226 13.0782 1.05297C15.8576 1.32672 18.4288 2.64743 20.2703 4.7472C22.1117 6.84697 23.0855 9.56857 22.9942 12.3599C22.9113 14.8921 21.9574 17.3096 20.3068 19.211Z" fill="#434343"/>
<path d="M8.75 7C8.33579 7 8 7.33579 8 7.75C8 8.16421 8.33579 8.5 8.75 8.5H11.7557C12.837 8.5 13.7535 9.20578 14.0696 10.1818H8.75C8.33579 10.1818 8 10.5176 8 10.9318C8 11.346 8.33579 11.6818 8.75 11.6818H14.0696C13.7535 12.6579 12.837 13.3636 11.7557 13.3636H9.4375C9.25513 13.3636 9.07228 13.4297 8.92792 13.5634C8.624 13.8448 8.60577 14.3193 8.88721 14.6232L13.0122 19.0778C13.2936 19.3817 13.7682 19.3999 14.0721 19.1185C14.376 18.8371 14.3942 18.3625 14.1128 18.0586L11.1542 14.8636H11.7557C13.6707 14.8636 15.2659 13.4946 15.6161 11.6818H16.3125C16.7267 11.6818 17.0625 11.346 17.0625 10.9318C17.0625 10.5176 16.7267 10.1818 16.3125 10.1818H15.6161C15.4951 9.55553 15.2255 8.98221 14.8455 8.5H16.3125C16.7267 8.5 17.0625 8.16421 17.0625 7.75C17.0625 7.33579 16.7267 7 16.3125 7H8.75Z" fill="#434343"/>
</svg>
