<svg width="12" height="13" viewBox="0 0 12 13" fill="none" xmlns="http://www.w3.org/2000/svg">
<path d="M2.99854 4C2.72239 4 2.49854 4.22386 2.49854 4.5C2.49854 4.77614 2.72239 5 2.99854 5L9.00146 5C9.27761 5 9.50146 4.77614 9.50146 4.5C9.50146 4.22386 9.27761 4 9.00146 4L2.99854 4Z" fill="currentColor"/>
<path fill-rule="evenodd" clip-rule="evenodd" d="M3 0C3.27614 0 3.5 0.223858 3.5 0.5L3.5 1.5L8.5 1.5V0.5C8.5 0.223858 8.72386 0 9 0C9.27614 0 9.5 0.223858 9.5 0.5V1.5L11 1.5C11.5523 1.5 12 1.94772 12 2.5L12 11.5C12 12.0523 11.5523 12.5 11 12.5L1 12.5C0.447715 12.5 0 12.0523 0 11.5L0 2.5C0 1.94772 0.447715 1.5 1 1.5L2.5 1.5L2.5 0.5C2.5 0.223858 2.72386 0 3 0ZM1 2.5L11 2.5L11 11.5L1 11.5L1 2.5Z" fill="currentColor"/>
</svg>
