<svg width="12" height="13" viewBox="0 0 12 13" fill="none" xmlns="http://www.w3.org/2000/svg">
<path d="M3 10C2.72386 10 2.5 10.2239 2.5 10.5C2.5 10.7761 2.72386 11 3 11L9 11C9.27614 11 9.5 10.7761 9.5 10.5C9.5 10.2239 9.27614 10 9 10L3 10Z" fill="currentColor"/>
<path d="M2.5 8.5C2.5 8.22386 2.72386 8 3 8L8 8C8.27614 8 8.5 8.22386 8.5 8.5C8.5 8.77614 8.27614 9 8 9L3 9C2.72386 9 2.5 8.77614 2.5 8.5Z" fill="currentColor"/>
<path d="M3 6C2.72386 6 2.5 6.22386 2.5 6.5C2.5 6.77614 2.72386 7 3 7L6 7C6.27614 7 6.5 6.77614 6.5 6.5C6.5 6.22386 6.27614 6 6 6L3 6Z" fill="currentColor"/>
<path fill-rule="evenodd" clip-rule="evenodd" d="M1.12966 0.653563C1.53483 0.236813 2.08741 0 2.66667 0L6.83333 0C6.96838 0 7.09769 0.0546306 7.19183 0.151461L11.3585 4.43717C11.4492 4.53051 11.5 4.65554 11.5 4.78571L11.5 10.7857C11.5 11.3685 11.275 11.9302 10.8703 12.3464C10.4652 12.7632 9.91259 13 9.33333 13L2.66667 13C2.08741 13 1.53483 12.7632 1.12966 12.3464C0.72495 11.9302 0.5 11.3685 0.5 10.7857L0.5 2.21429C0.5 1.63149 0.72495 1.06983 1.12966 0.653563ZM2.66667 1L5.5 1L5.5 3.5C5.5 4.16304 5.76339 4.79893 6.23223 5.26777C6.70107 5.73661 7.33696 6 8 6L10.5 6V10.7857C10.5 11.1122 10.3738 11.4226 10.1533 11.6494C9.9334 11.8756 9.63813 12 9.33333 12L2.66667 12C2.36187 12 2.0666 11.8756 1.84665 11.6494C1.62624 11.4226 1.5 11.1122 1.5 10.7857L1.5 2.21429C1.5 1.88776 1.62624 1.57735 1.84665 1.35064C2.0666 1.12441 2.36187 1 2.66667 1ZM8 5L10.5 5V4.98871L6.62209 1H6.5L6.5 3.5C6.5 3.89782 6.65804 4.27936 6.93934 4.56066C7.22064 4.84196 7.60218 5 8 5Z" fill="currentColor"/>
</svg>
