<svg width="13" height="11" viewBox="0 0 13 11" fill="none" xmlns="http://www.w3.org/2000/svg">
<path d="M9.25 5.60001C9.66421 5.60001 10 5.26422 10 4.85001C10 4.43579 9.66421 4.10001 9.25 4.10001C8.83579 4.10001 8.5 4.43579 8.5 4.85001C8.5 5.26422 8.83579 5.60001 9.25 5.60001Z" fill="currentColor"/>
<path d="M7.25 4.85001C7.25 5.26422 6.91421 5.60001 6.5 5.60001C6.08579 5.60001 5.75 5.26422 5.75 4.85001C5.75 4.43579 6.08579 4.10001 6.5 4.10001C6.91421 4.10001 7.25 4.43579 7.25 4.85001Z" fill="currentColor"/>
<path d="M3.75 5.60001C4.16421 5.60001 4.5 5.26422 4.5 4.85001C4.5 4.43579 4.16421 4.10001 3.75 4.10001C3.33579 4.10001 3 4.43579 3 4.85001C3 5.26422 3.33579 5.60001 3.75 5.60001Z" fill="currentColor"/>
<path fill-rule="evenodd" clip-rule="evenodd" d="M0.5 1.5C0.5 0.947716 0.947715 0.5 1.5 0.5L11.5 0.5C12.0523 0.5 12.5 0.947715 12.5 1.5L12.5 8.11539C12.5 8.66767 12.0523 9.11539 11.5 9.11539H8.55236C8.2086 9.11539 7.88893 9.29195 7.7059 9.58293L7.34646 10.1543C6.95432 10.7777 6.04568 10.7777 5.65354 10.1543L5.2941 9.58293C5.11107 9.29195 4.7914 9.11539 4.44764 9.11539H1.5C0.947715 9.11539 0.5 8.66767 0.5 8.11539L0.5 1.5ZM1.5 1.5L11.5 1.5L11.5 8.11539L8.55236 8.11539C7.86484 8.11539 7.22551 8.46852 6.85944 9.05048L6.5 9.62189L6.14056 9.05048C5.77449 8.46852 5.13516 8.11539 4.44764 8.11539H1.5L1.5 1.5Z" fill="currentColor"/>
</svg>
