<svg width="12" height="11" viewBox="0 0 12 11" fill="none" xmlns="http://www.w3.org/2000/svg">
<path fill-rule="evenodd" clip-rule="evenodd" d="M5.64645 0.146447L2.46447 3.32843C2.2692 3.52369 2.2692 3.84027 2.46447 4.03553C2.65973 4.2308 2.97631 4.2308 3.17157 4.03553L5.5 1.70711L5.5 7.5C5.5 7.77614 5.72386 8 6 8C6.27614 8 6.5 7.77614 6.5 7.5L6.5 1.70711L8.82843 4.03553C9.02369 4.2308 9.34027 4.2308 9.53553 4.03553C9.7308 3.84027 9.7308 3.52369 9.53553 3.32843L6.35355 0.146447C6.15829 -0.0488156 5.84171 -0.0488156 5.64645 0.146447ZM1.5 6.5C1.5 6.22386 1.27614 6 1 6C0.723858 6 0.5 6.22386 0.5 6.5L0.5 10C0.5 10.5523 0.947716 11 1.5 11L10.5 11C11.0523 11 11.5 10.5523 11.5 10V6.5C11.5 6.22386 11.2761 6 11 6C10.7239 6 10.5 6.22386 10.5 6.5V10L1.5 10L1.5 6.5Z" fill="currentColor"/>
</svg>
